<?xml version="1.0" encoding="UTF-8"?>
<svg width="27px" height="31px" viewBox="0 0 27 31" version="1.1" xmlns="http://www.w3.org/2000/svg" xmlns:xlink="http://www.w3.org/1999/xlink">
    <!-- Generator: Sketch 63.1 (92452) - https://sketch.com -->
    <title>Group 9</title>
    <desc>Created with Sketch.</desc>
    <defs>
        <polygon id="path-1" points="0 0.270454545 26.7734718 0.270454545 26.7734718 30 0 30"></polygon>
    </defs>
    <g id="生源泰-電腦用" stroke="none" stroke-width="1" fill="none" fill-rule="evenodd">
        <g id="1首頁" transform="translate(-474.000000, -4363.000000)">
            <g id="頁尾" transform="translate(0.000000, 4108.000000)">
                <g id="台北辦事處" transform="translate(474.000000, 127.000000)">
                    <g id="Group-6" transform="translate(0.000000, 49.000000)">
                        <g id="Group-9" transform="translate(0.000000, 79.607229)">
                            <g id="编组">
                                <mask id="mask-2" fill="white">
                                    <use xlink:href="#path-1"></use>
                                </mask>
                                <g id="Clip-2"></g>
                                <path d="M8.58535932,25.1105909 C8.58535932,25.2960455 8.58627458,25.4583182 8.58535932,25.6205909 C8.5798678,26.3319545 8.17852881,26.7296818 7.45730847,26.7333182 C6.84408814,26.7360455 6.23041017,26.7333182 5.61718983,26.7346818 C5.51468136,26.7346818 5.41217288,26.7442273 5.31607119,26.7492273 C5.1897661,27.7360455 5.43963051,28.0215 6.39927458,28.0215 L9.46629153,28.0215 C10.4108339,28.0215 11.3553763,28.0255909 12.2999186,28.0192273 C12.8385458,28.0155909 13.1520203,27.7024091 13.1639186,27.1728636 C13.1698678,26.9024091 13.1652915,26.6315 13.1652915,26.3605909 L13.1652915,25.1105909 L8.58535932,25.1105909 Z M11.8962915,6.74968182 L23.0271559,6.74968182 L23.0271559,2.26513636 L11.8962915,2.26513636 L11.8962915,6.74968182 Z M2.00010508,24.7265 L6.56768136,24.7265 L6.56768136,7.13786364 L2.00010508,7.13786364 L2.00010508,24.7265 Z M8.6018339,23.0874091 L24.7679695,23.0874091 L24.7679695,8.76468182 L8.6018339,8.76468182 L8.6018339,23.0874091 Z M12.7433593,30.0001364 L5.66981695,30.0001364 C5.61764746,29.9805909 5.56639322,29.9546818 5.51239322,29.9428636 C4.11251186,29.6278636 3.29198644,28.6092273 3.28878305,27.1815 C3.28832542,27.0405909 3.28878305,26.8992273 3.28878305,26.7337727 C2.51905424,26.7337727 1.79005424,26.7396818 1.06151186,26.7315 C0.411681356,26.7246818 0.00164745763,26.3146818 0.00118983051,25.6733182 C-0.000640677966,19.1715 -0.000640677966,12.6692273 0.00164745763,6.16695455 C0.00164745763,5.55104545 0.399325424,5.13604545 1.01849492,5.13377273 C3.20046102,5.12468182 5.38242712,5.12468182 7.56485085,5.13331818 C8.17990169,5.13604545 8.57071525,5.5515 8.58444407,6.16877273 C8.58856271,6.35922727 8.58535932,6.54968182 8.58535932,6.74604545 L9.87861356,6.74604545 L9.87861356,6.41013636 C9.87861356,4.75559091 9.87861356,3.10104545 9.87861356,1.4465 C9.87907119,0.640590909 10.2479186,0.270590909 11.0515119,0.270590909 C15.3179695,0.27025 19.5848847,0.27025 23.8513424,0.270590909 C24.6778169,0.270590909 25.0384271,0.630590909 25.0388847,1.45831818 C25.0398,3.11286364 25.0388847,4.76740909 25.0402576,6.42195455 C25.0402576,6.53286364 25.0507831,6.64331818 25.0576475,6.7665 C25.2805119,6.7665 25.4649356,6.76604545 25.6498169,6.7665 C26.3801898,6.76922727 26.7728339,7.15240909 26.7728339,7.87195455 C26.7737492,13.2419545 26.7737492,18.6124091 26.7723763,23.9824091 C26.7719186,24.0974091 26.7687153,24.2160455 26.7417153,24.3274091 C26.6186136,24.8387727 26.2328339,25.0965 25.5921559,25.0965 C22.2505627,25.0978636 18.9094271,25.0969545 15.5682915,25.0969545 L15.1632915,25.0969545 C15.1632915,25.2387727 15.1637492,25.3428636 15.1632915,25.4474091 C15.1596305,26.0955909 15.1742746,26.7442273 15.1477322,27.3919545 C15.1138678,28.2337727 14.7509695,28.9401364 14.0558339,29.4124091 C13.6663932,29.6774091 13.1840542,29.8087727 12.7433593,30.0001364 L12.7433593,30.0001364 Z" id="Fill-1" fill="#FFFFFF" mask="url(#mask-2)"></path>
                            </g>
                            <path d="M12.0156087,18.00265 C12.3265148,18.0031076 12.6379247,17.9953283 12.9488307,18.0044805 C13.5454478,18.0227848 13.9954301,18.4479038 14,18.9860523 C14.0045003,19.5260312 13.5650999,19.9699122 12.9704984,19.9863861 C12.3275226,20.0046905 11.683035,20.0042329 11.0400592,19.9868437 C10.4484811,19.971285 9.99749101,19.5223703 10,18.9915436 C10.0020261,18.4479038 10.4706527,18.0168359 11.0823868,18.0035652 C11.3932928,17.9967011 11.7041988,18.0021924 12.0156087,18.00265" id="Fill-3" fill="#FFFFFF"></path>
                            <path d="M16.9897816,19.9971015 C16.6901842,19.9971015 16.3905868,20.0035158 16.0909894,19.995727 C15.4621365,19.9796911 14.9896172,19.5384767 15.0001734,18.9850114 C15.0097244,18.4388768 15.4762116,18.0136981 16.0904867,18.0063675 C16.7007405,17.9985786 17.3104915,17.9972041 17.9202426,18.0063675 C18.5249668,18.0155308 19.0005023,18.4604106 19,18.9992146 C19,19.5265643 18.5410526,19.9686951 17.9524141,19.9934361 C17.6322068,20.006723 17.3104915,19.995727 16.9897816,19.995727 L16.9897816,19.9971015 Z" id="Fill-5" fill="#FFFFFF"></path>
                            <path d="M21.9752853,13.9933871 C21.6538584,13.9933871 21.3314239,14.0071622 21.0105009,13.9901729 C20.4668965,13.9612451 20.0431974,13.5718681 20.0033969,13.0874427 C19.9615812,12.5818955 20.3092059,12.08645 20.8593597,12.0442062 C21.6130503,11.9863507 22.3803436,11.9849732 23.1340342,12.0419104 C23.7028288,12.0850724 24.0434002,12.5768446 23.9955388,13.1062687 C23.9522117,13.5856432 23.522467,13.9667551 22.9723132,13.9924687 C22.6408102,14.0076214 22.3077958,13.9952237 21.9752853,13.9952237 C21.9752853,13.9947646 21.9752853,13.9938462 21.9752853,13.9933871" id="Fill-7" fill="#FFFFFF"></path>
                            <path d="M12.0134887,15.0045437 C12.3242709,15.0045437 12.6355569,14.9949392 12.9463391,15.0068305 C13.5145114,15.0278689 13.9542405,15.4061041 13.9960475,15.8950199 C14.0418841,16.4337877 13.685769,16.9167578 13.0984561,16.9597495 C12.3756482,17.0132604 11.6412553,17.012803 10.9179437,16.9620363 C10.333653,16.9213314 9.95537512,16.4250979 10.0042339,15.9046244 C10.0515816,15.3997011 10.4953403,15.0237527 11.0811421,15.005001 C11.3914206,14.9949392 11.7027065,15.0031716 12.0134887,15.0031716 L12.0134887,15.0045437 Z" id="Fill-9" fill="#FFFFFF"></path>
                            <path d="M21.9939862,16.9975215 C21.7153312,16.9975215 21.4361723,17.0030087 21.1575173,16.996607 C20.4752408,16.9806026 19.9935153,16.5548856 20.000066,15.9810138 C20.0071206,15.4153727 20.4797759,15.0116047 21.1570134,15.0047456 C21.7254092,14.9988011 22.2938049,14.9978866 22.8622007,15.0052029 C23.5359109,15.0134337 24,15.4236035 24,15.9951891 C24,16.5626592 23.5328875,16.9774017 22.8627046,16.9961497 C22.5729638,17.0039233 22.283727,16.9975215 21.9939862,16.9975215" id="Fill-11" fill="#FFFFFF"></path>
                            <path d="M22.0094636,18.0025945 C22.3203807,18.0030521 22.6318018,17.9957301 22.942719,18.0044249 C23.5403653,18.021357 23.9933872,18.4446573 23.9999381,18.9814479 C24.0059851,19.5209842 23.5680807,19.9685385 22.9749697,19.9859281 C22.3319709,20.0051482 21.6874602,20.0037754 21.0444614,19.987301 C20.4382485,19.9712842 19.9857305,19.5136622 20.0003441,18.966804 C20.0139499,18.4364201 20.4770501,18.017696 21.0762082,18.0035097 C21.3871253,17.9961877 21.6985464,18.0025945 22.0094636,18.0025945" id="Fill-13" fill="#FFFFFF"></path>
                            <path d="M11.9787104,13.9947188 C11.6568132,13.9947188 11.3344123,14.0085218 11.0140264,13.9914981 C10.4689673,13.9629718 10.0483348,13.5764869 10.0040047,13.0887798 C9.9581633,12.5872697 10.3097818,12.0834591 10.8583672,12.0425101 C11.6225581,11.9854575 12.4003504,11.9849974 13.1640376,12.0461909 C13.7151417,12.0908207 14.0415726,12.5826687 13.9957312,13.1039632 C13.9549274,13.5746465 13.5383249,13.9602112 13.0073709,13.9901178 C12.6658274,14.0089819 12.3217651,13.9937986 11.9787104,13.9937986 L11.9787104,13.9947188 Z" id="Fill-15" fill="#FFFFFF"></path>
                            <path d="M16.9640487,13.9952329 C16.6539288,13.9952329 16.3428036,14.0071485 16.0336889,13.9924831 C15.4591879,13.9654439 15.0329615,13.5694797 15.0017987,13.0539013 C14.9711386,12.5543631 15.3350394,12.0781978 15.8944616,12.0387847 C16.626787,11.9865394 17.3701701,11.987456 18.1019929,12.0392429 C18.6553835,12.0786561 19.0333579,12.5704033 18.9976715,13.0557344 C18.9599746,13.5713129 18.531235,13.9668188 17.9587446,13.9924831 C17.628017,14.0076068 17.2957816,13.9952329 16.9640487,13.9952329" id="Fill-17" fill="#FFFFFF"></path>
                            <path d="M16.9850184,16.9968316 C16.6960227,16.9968316 16.4070269,17.0050558 16.1185338,16.995004 C15.4581156,16.9721589 14.9876808,16.5394733 15.0002458,15.9774845 C15.0123082,15.4218924 15.4767119,15.015707 16.1275806,15.006569 C16.7156241,14.9983448 17.3046729,14.9969741 17.8927164,15.0074828 C18.5199629,15.0184484 18.9808483,15.428289 18.9994445,15.9710879 C19.0180408,16.5024642 18.56771,16.9493138 17.9475,16.9895211 C17.6278455,17.0105386 17.3056781,16.9931764 16.9850184,16.9931764 L16.9850184,16.9968316 Z" id="Fill-19" fill="#FFFFFF"></path>
                            <path d="M17.518372,4.00266411 C18.6522564,4.00266411 19.7866208,3.99491146 20.9209852,4.00585638 C21.4860072,4.01132883 21.9022128,4.35198938 21.986222,4.83402176 C22.0668709,5.29918073 21.7870002,5.77346047 21.3160685,5.92167288 C21.1365288,5.97822162 20.9353868,5.99235881 20.7438458,5.99281484 C18.8327562,5.99783126 16.9221467,5.99600711 15.0115371,5.99555107 C14.6846213,5.99555107 14.3567453,6.00877618 14.0307896,5.98962258 C13.3159912,5.94857914 12.8589811,5.37123477 13.0394809,4.74281412 C13.1551735,4.34104446 13.4374445,4.0956959 13.8723722,4.02500998 C14.0019864,4.00357619 14.1368812,4.00266411 14.2688957,4.00266411 C15.3518945,4.00083996 16.4353733,4.00175203 17.518372,4.00175203 L17.518372,4.00266411 Z" id="Fill-21" fill="#FFFFFF"></path>
                        </g>
                    </g>
                </g>
            </g>
        </g>
    </g>
</svg>