<?xml version="1.0" encoding="UTF-8"?>
<svg width="18px" height="20px" viewBox="0 0 18 20" version="1.1" xmlns="http://www.w3.org/2000/svg" xmlns:xlink="http://www.w3.org/1999/xlink">
    <!-- Generator: Sketch 63.1 (92452) - https://sketch.com -->
    <title>小標</title>
    <desc>Created with Sketch.</desc>
    <g id="生源泰-電腦用" stroke="none" stroke-width="1" fill="none" fill-rule="evenodd">
        <g id="1首頁" transform="translate(-922.000000, -2919.000000)" fill="#0E77AF">
            <g id="實驗室" transform="translate(0.000000, 2562.000000)">
                <g id="右邊圖" transform="translate(920.000000, 354.000000)">
                    <g id="小標" transform="translate(2.000000, 3.000000)">
                        <path d="M8.91873665,5.1127005 C8.78390401,4.9890917 8.5255582,4.96339786 8.34338183,5.05436893 C7.10930422,5.67103517 5.17729665,6.40505075 2.98612119,6.40505075 L2.97171097,6.40505075 C2.71748614,6.40505075 2.47766889,6.47032798 2.29446491,6.58837242 C2.10713996,6.7098977 2.00215009,6.87171036 2.00009487,7.04461442 C1.99906726,7.12586297 1.98980299,9.05507293 3.03450043,11.2306845 C3.73851699,12.697329 4.76262012,13.9355325 6.07806317,14.9090289 C6.16040352,14.969444 6.27259191,15 6.38376324,15 C6.48257165,15 6.58241031,14.9756946 6.6606376,14.9277789 C6.82840638,14.8243084 6.84075612,14.6486186 6.68739755,14.5354292 C5.45126473,13.6208653 4.48581427,12.4513718 3.81773763,11.0604595 C2.81318538,8.96946889 2.8224602,7.12718562 2.82348781,7.0494979 C2.82348781,7.02033212 2.84922016,6.99949866 2.86362774,6.98977614 C2.88009581,6.97936029 2.91612004,6.96130368 2.97375828,6.96130368 L2.98302256,6.96130368 C5.40177357,6.96130368 7.49843548,6.16757345 8.83221737,5.50161018 C9.01645423,5.40994578 9.05453631,5.23633418 8.91867342,5.11272716 L8.91873665,5.1127005 Z" id="Fill-1"></path>
                        <path d="M8.41398202,0.200778779 C8.31361869,0.0765615343 8.16973505,0.00390597624 8.01674381,0 L7.99919699,0 C7.85601947,0 7.71355345,0.0679675866 7.6124876,0.182030893 C7.58230799,0.215624688 4.58751929,3.56881029 0.864164211,3.56881029 C0.768010609,3.56881029 0.671860601,3.56646631 0.574298366,3.56177833 C0.56517441,3.56099834 0.556050814,3.56099834 0.547627761,3.56099834 C0.262684946,3.56099834 0.0233430428,3.80631685 0.00931061087,4.11803495 C0.00369584136,4.24459618 -0.120531608,7.2500159 0.738529925,10.7069949 C1.89377028,15.3537666 4.2919147,18.5537469 7.67479088,19.9609382 C7.73725586,19.9867201 7.80393057,20 7.86989738,20 C7.9169213,20 7.96254018,19.99375 8.00816085,19.9804689 C8.08606511,19.9585931 9.84836787,19.4375122 11.7069015,17.4522838 C11.4745848,17.419472 11.2471911,17.3686903 11.026104,17.3015028 C9.38098548,18.9288333 7.8859655,19.3694908 7.87123235,19.3748905 C4.66371665,18.0412987 2.38492876,14.9859168 1.2794031,10.5397439 C0.488431022,7.35696325 0.555107533,4.55938027 0.567738518,4.18658253 C0.665997883,4.19048851 0.764965158,4.1928325 0.863210149,4.1928325 C4.74234139,4.1928325 7.78348024,0.875652674 8.00375887,0.628854175 C10.4020291,3.5834362 15.0986715,4.41783113 15.4384342,4.47483078 C15.4194841,5.47326471 15.3563184,6.40449904 15.2580609,7.27321376 C15.4356277,7.41305691 15.6061766,7.56539198 15.7682952,7.73181097 C15.8974349,6.72243711 15.9795542,5.63182374 16,4.44983093 C16.0048234,4.15529272 15.8055054,3.90217426 15.5352957,3.85921452 C15.489675,3.85218457 10.7396537,3.07717928 8.41361189,0.20063678 L8.41398202,0.200778779 Z" id="Fill-2"></path>
                        <path d="M18,12 C18,9.239 15.9856038,7 13.5007038,7 L13.5,7 C11.01438,7 9,9.2382 9,12 C9,14.761 11.01438,17 13.5,17 C15.9849,17 18,14.761 18,12 L18,12 Z M16.4095218,14.7906 L15.8674158,14.18826 C15.7577274,14.066384 15.5798298,14.066384 15.4694538,14.18826 C15.3597654,14.310136 15.3597654,14.50858 15.4694538,14.63044 L16.0115598,15.23278 C16.0347636,15.258562 16.060779,15.277312 16.088904,15.292156 C15.458202,15.905436 14.65101,16.298396 13.763664,16.364036 C13.7742102,16.331224 13.7812428,16.296068 13.7812428,16.259348 L13.7812428,15.407788 C13.7812428,15.235132 13.6553832,15.095288 13.4999928,15.095288 C13.3446024,15.095288 13.2187428,15.235132 13.2187428,15.407788 L13.2187428,16.259348 C13.2187428,16.296066 13.2257736,16.331224 13.2363198,16.364036 C12.3489738,16.298412 11.5417818,15.905436 10.9110798,15.292156 C10.938501,15.277312 10.9652202,15.258562 10.988424,15.23278 L11.53053,14.63044 C11.6402184,14.508564 11.6402184,14.31012 11.53053,14.18826 C11.4208416,14.0664 11.242944,14.066384 11.132568,14.18826 L10.590462,14.7906 C10.5672582,14.816382 10.5503832,14.845288 10.5370236,14.876538 C9.9850716,14.175758 9.6314076,13.278878 9.5723316,12.292938 C9.6018624,12.304656 9.6335028,12.31247 9.6665508,12.31247 L10.4329548,12.31247 C10.5883452,12.31247 10.7142048,12.172626 10.7142048,11.99997 C10.7142048,11.827314 10.5883452,11.68747 10.4329548,11.68747 L9.6665508,11.68747 C9.6335046,11.68747 9.6018624,11.695282 9.5723316,11.707 C9.6292854,10.74606 9.9646776,9.84606 10.5363216,9.1218 C10.5496812,9.15305 10.56726,9.183518 10.590462,9.2093 L11.132568,9.81164 C11.1874122,9.872578 11.2591296,9.903046 11.331558,9.903046 C11.4032772,9.903046 11.4756984,9.872578 11.530548,9.81164 C11.6402364,9.689764 11.6402364,9.49132 11.530548,9.36946 L10.988442,8.76712 C10.9652382,8.741338 10.937817,8.721808 10.909692,8.706964 C11.56149,8.071804 12.37149,7.699144 13.237092,7.635864 C13.225842,7.668676 13.2188112,7.703832 13.2188112,7.740552 L13.2188112,8.592112 C13.2188112,8.764768 13.3446708,8.904612 13.5000612,8.904612 C13.6554516,8.904612 13.7813112,8.764768 13.7813112,8.592112 L13.7813112,7.740552 C13.7813112,7.703834 13.7742804,7.668676 13.7637342,7.635864 C14.6588202,7.701488 15.4962342,8.098364 16.1593542,8.774144 L13.5774342,11.395944 L12.3518862,10.206884 C12.234465,10.093602 12.0572802,10.106884 11.9553282,10.236572 C11.8533744,10.36626 11.8653282,10.563912 11.9820474,10.677192 L13.3967394,12.049852 C13.4501778,12.101414 13.5155682,12.127196 13.5816534,12.127196 C13.6498572,12.127196 13.7180592,12.099852 13.7714994,12.045164 L16.5467394,9.227164 C17.0684514,9.932624 17.3736234,10.792004 17.4277494,11.706164 C17.3982186,11.695226 17.3665782,11.687414 17.3335302,11.687414 L16.5671262,11.687414 C16.4117358,11.687414 16.2858762,11.827258 16.2858762,11.999914 C16.2858762,12.17257 16.4117358,12.312414 16.5671262,12.312414 L17.3335302,12.312414 C17.3665764,12.312414 17.3982186,12.304602 17.4277494,12.292884 C17.3686878,13.278824 17.0150094,14.175704 16.4630574,14.876484 C16.4496978,14.845234 16.4328228,14.816328 16.409619,14.790546 L16.4095218,14.7906 Z" id="Fill-3"></path>
                        <path d="M8,15.5 C8,16.1666667 7,16.1666667 7,15.5 C7,14.8333333 8,14.8333333 8,15.5" id="Fill-4"></path>
                    </g>
                </g>
            </g>
        </g>
    </g>
</svg>