<?xml version="1.0" encoding="UTF-8"?>
<svg width="25px" height="25px" viewBox="0 0 25 25" version="1.1" xmlns="http://www.w3.org/2000/svg" xmlns:xlink="http://www.w3.org/1999/xlink">
    <!-- Generator: Sketch 63.1 (92452) - https://sketch.com -->
    <title>Group 18</title>
    <desc>Created with Sketch.</desc>
    <g id="生源泰-電腦用" stroke="none" stroke-width="1" fill="none" fill-rule="evenodd">
        <g id="1首頁" transform="translate(-778.000000, -3343.000000)" fill-rule="nonzero">
            <g id="實驗室" transform="translate(0.000000, 2562.000000)">
                <g id="左邊圖" transform="translate(129.000000, 356.000000)">
                    <g id="左右轉" transform="translate(650.000000, 426.000000)">
                        <g id="Group-18">
                            <g id="XMLID_31_" transform="translate(9.200000, 7.475000)" fill="#FFFFFF">
                                <path d="M1.52375,3.85482981 C2.09875,4.31482981 2.61625,4.83232981 3.13375,5.29232981 C3.70875,5.80982981 4.28375,6.26982981 4.80125,6.78732981 C5.03125,6.95982981 5.08875,7.24732981 4.97375,7.47732981 C4.80125,7.82232981 4.39875,7.93732981 4.05375,7.70732981 C3.53625,7.24732981 3.01875,6.78732981 2.50125,6.38482981 C1.75375,5.75232981 1.00625,5.06232981 0.25875,4.42982981 C-0.08625,4.14232981 -0.08625,3.73982981 0.25875,3.45232981 C1.52375,2.35982981 2.73125,1.26732981 3.99625,0.174829805 C4.16875,0.00232980541 4.39875,-0.0551701946 4.62875,0.0598298054 C5.03125,0.232329805 5.14625,0.749829805 4.80125,1.03732981 C4.34125,1.43982981 3.93875,1.78482981 3.47875,2.18732981 C2.84625,2.70482981 2.21375,3.27982981 1.63875,3.79732981 C1.63875,3.73982981 1.58125,3.79732981 1.52375,3.85482981 Z" id="XMLID_32_"></path>
                            </g>
                            <rect id="XMLID_27_-Copy" stroke="#FFFFFF" opacity="0.849725632" x="0" y="0" width="23" height="23" rx="5"></rect>
                        </g>
                    </g>
                </g>
            </g>
        </g>
    </g>
</svg>