<svg xmlns="http://www.w3.org/2000/svg" viewBox="0 0 139.3 125.62"><defs><style>.cls-1{fill:#3e3a39;}</style></defs><title>資產 1</title><g id="圖層_2" data-name="圖層 2"><g id="圖層_1-2" data-name="圖層 1"><path class="cls-1" d="M66.65,66.09h.15c.79,0,1.55,0,2.33,0h.09a44.74,44.74,0,0,0,16.9-3.57c15.71-6.49,25.55-19.62,21.95-29.27-2-5.29-7.67-8.64-15.63-9.21h-.17a.28.28,0,0,1-.09-.06s-.12-.16.12-1.17l3-11.86a8.35,8.35,0,0,1,.26-.93l.73-2.79H77.45c-.32,0-.37.06-.38.06s0,.08.24.3a5.6,5.6,0,0,1,1.53,5.2,16.94,16.94,0,0,1-.4,1.86l-.07.31c-.9,3.59-3.93,15.57-6.35,25.16C70.67,45.45,69.51,50,69,52a.76.76,0,0,0,.11.65.71.71,0,0,0,.58.26h14A1.35,1.35,0,0,0,85,52l5.49-21.86A1.87,1.87,0,0,0,90,28.45a20.17,20.17,0,0,0-8.54-4.11c-1.12-.28-1.12-.33-1.12-.44s.16-.16.55-.2c.89,0,1.82.1,2.83.21,7.36.86,12.66,4.23,14.53,9.25C101.9,43,92,56.24,76.14,62.77a47.53,47.53,0,0,1-9.34,2.8,2.59,2.59,0,0,0-1,.34.11.11,0,0,0,0,.06h0A.25.25,0,0,1,66,66l.66,0"/><path class="cls-1" d="M38.24,57.06c5,7.9,15.41,9.07,21.18,9.07h.76c.65,0,1.26,0,1.79,0A.92.92,0,0,0,62.3,66a1.07,1.07,0,0,0-.28-.17C47.39,59.42,50.1,44.14,51.12,38.38L58.7,7.49a.18.18,0,0,0,0-.16.39.39,0,0,0-.31-.12H40.13c-.31,0-.37.06-.37.06s0,.09.24.31c.88.8,2.22,2.68,1.33,6.29l-5.62,23c-2,7.3-1.12,14.49,2.53,20.24"/><path class="cls-1" d="M119,7a4.48,4.48,0,0,1-5.91,1.59,4,4,0,0,1-1-5.74,4.5,4.5,0,0,1,5.91-1.6A4,4,0,0,1,119,7"/><path class="cls-1" d="M94.84,11.85a4.32,4.32,0,0,1-1.9,2.37,3.58,3.58,0,0,1-5.08-1.16,4,4,0,0,1,1.7-5.2,4,4,0,0,1,2.89-.5l.12,0a6,6,0,0,0,4.37-.75,6.6,6.6,0,0,0,2.87-3.56,1.11,1.11,0,0,0,0-.13,4.38,4.38,0,0,1,1.9-2.36,3.56,3.56,0,0,1,5.08,1.16,4,4,0,0,1-1.7,5.2,3.92,3.92,0,0,1-2.89.49,6,6,0,0,0-4.48.73,6.59,6.59,0,0,0-2.91,3.68"/><path class="cls-1" d="M102.25,7.45a3.25,3.25,0,0,1-2.19-1.66A4,4,0,0,1,101.75.6a3.58,3.58,0,0,1,5.09,1.15,3.67,3.67,0,0,1,.2,2.83l0,.13A5.47,5.47,0,0,0,107.3,9a4.93,4.93,0,0,0,3.3,2.49l.13,0a3.24,3.24,0,0,1,2.18,1.65,4,4,0,0,1-1.7,5.2,3.57,3.57,0,0,1-5.08-1.15,3.65,3.65,0,0,1-.2-2.84,5.5,5.5,0,0,0-.26-4.41,4.93,4.93,0,0,0-3.42-2.52"/><path class="cls-1" d="M8.57,103.59c-2.64,0-4.21-1.51-4.21-5.18V88a.26.26,0,0,0-.26-.27H.27A.27.27,0,0,0,0,88V98.57c0,5.69,3.18,8.84,8.54,8.84s8.54-3.15,8.54-8.84V88a.27.27,0,0,0-.26-.27H13a.27.27,0,0,0-.27.27V98.41c0,3.67-1.53,5.18-4.2,5.18"/><path class="cls-1" d="M37.44,99.28,28.4,88a.63.63,0,0,0-.43-.21H24.89a.26.26,0,0,0-.26.27v18.79a.26.26,0,0,0,.26.26h3.78a.27.27,0,0,0,.27-.26V95.61c0-.15.07-.17.16-.06l9.07,11.32a.64.64,0,0,0,.43.2h3a.27.27,0,0,0,.27-.26V88a.27.27,0,0,0-.27-.27H37.88a.27.27,0,0,0-.27.27v11.2c0,.14-.07.17-.17.06"/><path class="cls-1" d="M49.89,107.07h3.83a.27.27,0,0,0,.27-.26V88a.27.27,0,0,0-.27-.27H49.89a.27.27,0,0,0-.27.27v18.79a.27.27,0,0,0,.27.26"/><path class="cls-1" d="M75.52,93.29a.26.26,0,0,0,.37,0L78.31,91a.28.28,0,0,0,0-.39,9.68,9.68,0,0,0-7.59-3.22c-5.87,0-10.23,4.17-10.23,10s4.36,10,10.21,10a9.65,9.65,0,0,0,7.61-3.25.28.28,0,0,0,0-.39l-2.42-2.28a.25.25,0,0,0-.36,0A5.94,5.94,0,0,1,71,103.6a6.19,6.19,0,0,1,0-12.37,5.94,5.94,0,0,1,4.56,2.06"/><path class="cls-1" d="M89.27,99H97.5a.26.26,0,0,0,.27-.26v-3a.27.27,0,0,0-.27-.27H89.27a.26.26,0,0,1-.26-.26V91.61a.27.27,0,0,1,.26-.27h9.39a.26.26,0,0,0,.26-.26V88a.27.27,0,0,0-.26-.27H84c-.14,0-.26.09-.26.19a.64.64,0,0,0,.18.37l.55.56a.78.78,0,0,1,.18.46v15a2.69,2.69,0,0,0,2.66,2.72H99a.26.26,0,0,0,.26-.26v-3.06a.27.27,0,0,0-.26-.27H89.27a.26.26,0,0,1-.26-.26V99.28a.27.27,0,0,1,.26-.27"/><path class="cls-1" d="M110.08,87.76h-3.83A.26.26,0,0,0,106,88v16.33a2.69,2.69,0,0,0,2.66,2.72h10.89a.27.27,0,0,0,.27-.26V103.7a.27.27,0,0,0-.27-.27h-8.92a.26.26,0,0,1-.26-.27V88a.26.26,0,0,0-.27-.26"/><path class="cls-1" d="M129.85,103.16V88a.26.26,0,0,0-.27-.26h-3.83a.26.26,0,0,0-.27.26v16.33a2.7,2.7,0,0,0,2.67,2.72H139a.26.26,0,0,0,.26-.26V103.7a.27.27,0,0,0-.26-.27h-8.92a.27.27,0,0,1-.27-.27"/><path class="cls-1" d="M13.83,125.43h1.3a.12.12,0,0,0,.12-.12v-9.17a.11.11,0,0,0-.12-.11h-1.3a.11.11,0,0,0-.12.11v9.17a.12.12,0,0,0,.12.12"/><path class="cls-1" d="M23,115.84c-3,0-4.66,2-4.66,4.89S20,125.62,23,125.62s4.66-2,4.66-4.89S26,115.84,23,115.84m0,8.64c-1.89,0-3-1.42-3-3.75S21.12,117,23,117s3,1.4,3,3.75-1.12,3.75-3,3.75"/><path class="cls-1" d="M29.66,117.21h3.13a.11.11,0,0,1,.12.11v8a.12.12,0,0,0,.12.12h1.29a.12.12,0,0,0,.12-.12v-8a.12.12,0,0,1,.12-.11H37.7a.11.11,0,0,0,.12-.11v-1a.12.12,0,0,0-.12-.12h-8a.12.12,0,0,0-.12.12v1a.11.11,0,0,0,.12.11"/><path class="cls-1" d="M42.17,121.31h4.37a.12.12,0,0,0,.12-.11v-1a.12.12,0,0,0-.12-.12H42.17a.12.12,0,0,1-.12-.12v-2.68a.12.12,0,0,1,.12-.12h4.76a.11.11,0,0,0,.12-.11v-1a.11.11,0,0,0-.12-.11H40.19c-.06,0-.08,0,0,.08l.26.25a.31.31,0,0,1,.09.2v8.75a.11.11,0,0,0,.11.12h6.45a.12.12,0,0,0,.12-.12v-1a.12.12,0,0,0-.12-.12h-4.9a.11.11,0,0,1-.12-.11v-2.69a.12.12,0,0,1,.12-.12"/><path class="cls-1" d="M56.79,119.05v.07s.07.07.13.07h1.29c.07,0,.12,0,.12-.07v-.07c-.2-1.85-1.52-3.21-4-3.21-2.72,0-4.62,2-4.62,4.93s1.69,4.85,4.45,4.85c2.53,0,3.94-1.4,4.14-3.24a.32.32,0,0,1,0-.07s-.05-.07-.12-.07H56.86c-.06,0-.12,0-.13.07v.07a2.4,2.4,0,0,1-2.53,2.1c-1.71,0-2.85-1.45-2.85-3.78S52.47,117,54.26,117a2.38,2.38,0,0,1,2.53,2.07"/><path class="cls-1" d="M79.86,116.14v4.41c0,.94,0,2.13,0,3.17,0,.07,0,.07-.06,0l-4.21-7.6a.21.21,0,0,0-.18-.1H73.52a.11.11,0,0,0-.12.11v9.17a.12.12,0,0,0,.12.12h1.3a.12.12,0,0,0,.12-.12v-4.38c0-.93,0-2.09,0-3.14,0-.06,0-.07,0,0l4.18,7.55a.23.23,0,0,0,.17.1h2a.12.12,0,0,0,.12-.12l0-9.17a.11.11,0,0,0-.12-.11H80a.11.11,0,0,0-.12.11"/><path class="cls-1" d="M89.15,115.84c-3,0-4.67,2-4.67,4.89s1.69,4.89,4.67,4.89,4.65-2,4.65-4.89-1.7-4.89-4.65-4.89m0,8.64c-1.9,0-3-1.42-3-3.75s1.12-3.75,3-3.75,3,1.4,3,3.75-1.11,3.75-3,3.75"/><path class="cls-1" d="M98.45,116h-1.3a.11.11,0,0,0-.12.11v9.17a.12.12,0,0,0,.12.12h6.44a.12.12,0,0,0,.12-.12v-1a.12.12,0,0,0-.12-.12h-4.9a.12.12,0,0,1-.12-.12v-7.93a.12.12,0,0,0-.12-.11"/><path class="cls-1" d="M110.14,115.84c-3,0-4.66,2-4.66,4.89s1.69,4.89,4.66,4.89,4.66-2,4.66-4.89-1.7-4.89-4.66-4.89m0,8.64c-1.89,0-3-1.42-3-3.75s1.12-3.75,3-3.75,3,1.4,3,3.75-1.12,3.75-3,3.75"/><path class="cls-1" d="M124.53,119.05l0,.07s.06.07.12.07H126c.07,0,.12,0,.11-.07v-.07c-.2-1.85-1.52-3.21-4.06-3.21a4.57,4.57,0,0,0-4.65,4.93c0,2.86,1.63,4.85,4.39,4.85a3.25,3.25,0,0,0,2.35-.79.67.67,0,0,0,.14-.19l.33-.7c0-.06,0,0,.06,0l0,1.36a.13.13,0,0,0,.13.12h1.05a.12.12,0,0,0,.12-.12v-4.42a.12.12,0,0,0-.12-.12h-3.42a.12.12,0,0,0-.12.12v1a.12.12,0,0,0,.12.12h1.92a.1.1,0,0,1,.11.11,2.48,2.48,0,0,1-2.54,2.4c-1.73,0-2.89-1.45-2.89-3.78s1.16-3.72,3-3.72a2.35,2.35,0,0,1,2.52,2.07"/><path class="cls-1" d="M134.67,116.13l-3.12,5.77a.6.6,0,0,0-.06.22v3.19a.12.12,0,0,0,.12.12h1.29a.12.12,0,0,0,.12-.12v-3.44a.55.55,0,0,1,.06-.22l3.3-5.52c0-.06,0-.1-.06-.1h-1.47a.21.21,0,0,0-.18.1"/><path class="cls-1" d="M129.7,116h-1.51c-.06,0-.09,0-.06.1l3.08,5.15a.06.06,0,0,0,.12,0L132,120a.26.26,0,0,0,0-.21l-2.12-3.69a.21.21,0,0,0-.18-.1"/><path class="cls-1" d="M68.13,120.21v5.1a.12.12,0,0,0,.12.12h1.29a.12.12,0,0,0,.12-.12v-9.17a.12.12,0,0,0-.12-.12H68.25a.13.13,0,0,0-.12.12v4.07Z"/><path class="cls-1" d="M63.05,116h-1.3a.12.12,0,0,0-.12.11v9.17a.12.12,0,0,0,.12.12h1.3a.12.12,0,0,0,.12-.12v-3.77a.12.12,0,0,1,.12-.12h4.05a.11.11,0,0,0,.12-.11v-1a.12.12,0,0,0-.12-.12H63.29a.12.12,0,0,1-.12-.12v-4a.11.11,0,0,0-.12-.11"/><path class="cls-1" d="M8.66,120.36a2,2,0,0,0,1.47-2c0-1.31-.87-2.11-2.42-2.32a10.45,10.45,0,0,0-1.25,0h-3a.11.11,0,0,0-.12.11v1a.11.11,0,0,0,.12.11c.63,0,3.53,0,3.73,0,.77.09,1.32.48,1.32,1.31a1.27,1.27,0,0,1-1.22,1.38,4.56,4.56,0,0,1-.73,0H5a.12.12,0,0,1-.12-.12V118a.11.11,0,0,0-.12-.11H3.45a.11.11,0,0,0-.12.11v7.29a.12.12,0,0,0,.12.12H6.62a7.85,7.85,0,0,0,1.29-.07,2.7,2.7,0,0,0,2.57-2.71,2.13,2.13,0,0,0-1.82-2.22c-.07,0-.07-.05,0-.07m-1.88,3.87H5a.12.12,0,0,1-.12-.11v-2.85a.12.12,0,0,1,.12-.12h1.7a4.78,4.78,0,0,1,.73,0,1.41,1.41,0,0,1,1.43,1.53,1.44,1.44,0,0,1-1.41,1.5H6.78"/></g></g></svg>