<?xml version="1.0" encoding="UTF-8"?>
<svg width="20px" height="21px" viewBox="0 0 20 21" version="1.1" xmlns="http://www.w3.org/2000/svg" xmlns:xlink="http://www.w3.org/1999/xlink">
    <!-- Generator: Sketch 63.1 (92452) - https://sketch.com -->
    <title>Group 8</title>
    <desc>Created with Sketch.</desc>
    <g id="生源泰-電腦用" stroke="none" stroke-width="1" fill="none" fill-rule="evenodd">
        <g id="1首頁" transform="translate(-476.000000, -4411.000000)" fill="#FFFFFF">
            <g id="頁尾" transform="translate(0.000000, 4108.000000)">
                <g id="台北辦事處" transform="translate(474.000000, 127.000000)">
                    <g id="Group-6" transform="translate(0.000000, 49.000000)">
                        <g id="Group-8" transform="translate(2.000000, 127.007229)">
                            <path d="M10,5.01204819 C7.25,5.01204819 5,7.26746988 5,10.0240964 C5,12.7807229 7.25,15.0361446 10,15.0361446 L15,15.0361446 C17.75,15.0361446 20,12.7807229 20,10.0240964 C20,4.48528193 15.5255,1.17310178e-12 10,1.17310178e-12 C4.4745,1.17310178e-12 0,4.48528193 0,10.0240964 C0,15.5629108 4.4745,20.0481928 10,20.0481928 L20,20.0481928 L20,17.5421687 L10,17.5421687 C5.8495,17.5421687 2.5,14.1845976 2.5,10.0240964 C2.5,5.86359518 5.8495,2.5060241 10,2.5060241 C14.1505,2.5060241 17.5,5.86359518 17.5,10.0240964 C17.5,11.4024096 16.375,12.5301205 15,12.5301205 L14.2998,12.5301205 C14.7246,11.7783133 15,10.9511248 15,10.0240964 C15,7.26746988 12.75,5.01204819 10,5.01204819 Z M10,12.5301205 C8.625,12.5301205 7.5,11.4024096 7.5,10.0240964 C7.5,8.64578313 8.625,7.51807229 10,7.51807229 C11.375,7.51807229 12.5,8.64578313 12.5,10.0240964 C12.5,11.4024096 11.375,12.5301205 10,12.5301205 Z" id="Page-1"></path>
                        </g>
                    </g>
                </g>
            </g>
        </g>
    </g>
</svg>