<?xml version="1.0" encoding="UTF-8"?>
<svg width="17px" height="24px" viewBox="0 0 17 24" version="1.1" xmlns="http://www.w3.org/2000/svg" xmlns:xlink="http://www.w3.org/1999/xlink">
    <!-- Generator: Sketch 63.1 (92452) - https://sketch.com -->
    <title>Page 1</title>
    <desc>Created with Sketch.</desc>
    <g id="生源泰-電腦用" stroke="none" stroke-width="1" fill="none" fill-rule="evenodd">
        <g id="1首頁" transform="translate(-152.000000, -4284.000000)" fill="#FFFFFF">
            <g id="頁尾" transform="translate(0.000000, 4108.000000)">
                <g id="總公司" transform="translate(150.000000, 127.000000)">
                    <g id="Group-6" transform="translate(0.000000, 49.000000)">
                        <path d="M10.625,3.78364007e-13 C6.12005302,3.78364007e-13 2.5,3.64493288 2.5,8.1840474 C2.5,12.7217335 10.625,23.8072289 10.625,23.8072289 C10.625,23.8072289 18.75,12.7217335 18.75,8.1840474 C18.75,3.64493288 15.129947,3.78364007e-13 10.625,3.78364007e-13 Z M10.625,11.9029003 C8.55741121,11.9029003 6.93156035,10.2666621 6.93156035,8.182619 C6.93156035,6.10000426 8.55599311,4.46233774 10.625,4.46233774 C12.6925888,4.46233774 14.3184397,6.09857586 14.3184397,8.182619 C14.3184397,10.2666264 12.6926242,11.9029003 10.625,11.9029003 Z" id="Page-1"></path>
                    </g>
                </g>
            </g>
        </g>
    </g>
</svg>