<?xml version="1.0" encoding="UTF-8"?>
<svg width="20px" height="21px" viewBox="0 0 20 21" version="1.1" xmlns="http://www.w3.org/2000/svg" xmlns:xlink="http://www.w3.org/1999/xlink">
    <!-- Generator: Sketch 63.1 (92452) - https://sketch.com -->
    <title>Group 7</title>
    <desc>Created with Sketch.</desc>
    <g id="生源泰-電腦用" stroke="none" stroke-width="1" fill="none" fill-rule="evenodd">
        <g id="1首頁" transform="translate(-476.000000, -4325.000000)" fill="#FFFFFF">
            <g id="頁尾" transform="translate(0.000000, 4108.000000)">
                <g id="台北辦事處" transform="translate(474.000000, 127.000000)">
                    <g id="Group-6" transform="translate(0.000000, 49.000000)">
                        <g id="Group-7" transform="translate(2.000000, 41.207229)">
                            <path d="M11.283258,13.1865373 C10.3317751,12.6046239 9.47684537,12.0240144 9.03095767,11.5770833 C8.48090701,11.0257455 7.72506703,9.84793493 7.01748738,8.6344963 C8.36910175,7.82212544 9.27612924,6.34383996 9.27612924,4.6489179 C9.27612924,2.08194072 7.19914653,0 4.63806462,0 C2.07581197,0 0,2.08184293 0,4.6489179 C0,5.34413681 0.15625094,6.00115258 0.42936732,6.59323605 L0.406502201,6.6021512 C0.406502201,6.6021512 2.99925902,11.6686307 6.18635934,14.8634139 C9.55905378,18.2440039 13.0715861,19.5286333 13.7740275,19.7616986 C14.2694438,19.9437795 14.8030066,20.0481928 15.3619354,20.0481928 C17.924188,20.0481928 20,17.9663498 20,15.3992749 C20,12.8321999 17.9230173,10.750357 15.3619354,10.750357 C13.6003391,10.750696 12.0683014,11.7349484 11.283258,13.1865373 Z" id="Page-1"></path>
                        </g>
                    </g>
                </g>
            </g>
        </g>
    </g>
</svg>