<?xml version="1.0" encoding="UTF-8"?>
<svg width="71px" height="30px" viewBox="0 0 71 30" version="1.1" xmlns="http://www.w3.org/2000/svg" xmlns:xlink="http://www.w3.org/1999/xlink">
    <!-- Generator: Sketch 63.1 (92452) - https://sketch.com -->
    <title>youtube</title>
    <desc>Created with Sketch.</desc>
    <defs>
        <polygon id="path-1" points="0.4872 0.5741 42.513 0.5741 42.513 30 0.4872 30"></polygon>
    </defs>
    <g id="生源泰-電腦用" stroke="none" stroke-width="1" fill="none" fill-rule="evenodd">
        <g id="1首頁" transform="translate(-1077.000000, -4408.000000)">
            <g id="頁尾" transform="translate(0.000000, 4108.000000)">
                <g id="youtube" transform="translate(1077.000000, 299.000000)">
                    <path d="M6.3331,17.0719 L6.3331,24.8129 L3.5191,24.8129 L3.5191,17.0719 C3.5191,17.0719 0.6021,7.5819 0.0001,5.8129 L2.9551,5.8129 L4.9311,13.2259 L6.8961,5.8129 L9.8521,5.8129 L6.3331,17.0719 Z" id="Fill-1" fill="#FFFFFF"></path>
                    <path d="M23.6436,21.4347 C23.0786,22.2327 22.6156,22.6777 22.1036,22.6777 C21.7626,22.6777 21.5956,22.5337 21.5336,22.1387 L21.5336,21.1537 L21.5336,10.5977 L18.8596,10.5977 L18.8596,21.8577 C18.8596,22.8337 18.9826,23.4987 19.1566,23.9247 C19.4416,24.6257 20.0126,25.0127 20.8336,25.0127 C21.7716,25.0127 22.6296,24.4257 23.6436,23.2647 L23.6436,24.8127 L26.3186,24.8127 L26.3186,10.5977 L23.6436,10.5977 L23.6436,21.4347 Z" id="Fill-3" fill="#FFFFFF"></path>
                    <path d="M13.0889,22.6962 C12.2579,22.6962 11.8219,21.9982 11.9629,20.5902 L11.9629,14.9612 C11.8219,13.5532 12.2589,12.8942 13.0889,12.8942 C13.9189,12.8942 14.3569,13.5532 14.2159,14.9612 L14.2149,20.5902 C14.3559,21.9982 13.9189,22.6962 13.0889,22.6962 M13.0889,10.4942 C11.8149,10.4942 10.8449,10.8922 10.1329,11.8652 C9.5849,12.5822 9.2909,13.7362 9.2909,15.2552 L9.2889,20.3092 C9.2889,21.8192 9.5499,22.8632 10.0979,23.5742 C10.8099,24.5442 11.9629,25.0572 13.0889,25.0572 C14.2149,25.0572 15.3879,24.5442 16.1009,23.5742 C16.6399,22.8632 16.8889,21.8192 16.8889,20.3092 L16.8889,15.2422 C16.8889,13.7232 16.5829,12.5822 16.0439,11.8652 C15.3319,10.8922 14.2149,10.4942 13.0889,10.4942" id="Fill-5" fill="#FFFFFF"></path>
                    <path d="M53.8214,12.859 C53.4024,12.859 52.9224,13.08 52.4954,13.501 L52.4924,22.036 C52.9194,22.462 53.4024,22.678 53.8214,22.678 C54.5564,22.678 54.8874,22.139 54.8874,20.731 L54.8874,14.68 C54.8874,13.272 54.5564,12.859 53.8214,12.859" id="Fill-7" fill="#FFFFFF"></path>
                    <path d="M64.3175,14.5504 C64.3175,13.2494 63.9815,12.8594 63.1365,12.8594 C62.2855,12.8594 61.9245,13.2174 61.9245,14.5324 L61.9245,16.0894 L64.3175,16.0864 L64.3175,14.5504 Z" id="Fill-9" fill="#FFFFFF"></path>
                    <g id="编组" transform="translate(28.000000, 0.425500)">
                        <mask id="mask-2" fill="white">
                            <use xlink:href="#path-1"></use>
                        </mask>
                        <g id="Clip-12"></g>
                        <path d="M35.1602,22.2521 C35.7872,22.2521 36.1532,21.9111 36.2992,21.2301 C36.3222,21.0911 36.3172,20.4841 36.3172,19.4611 L38.9912,19.4611 L38.9912,19.8601 C38.9912,20.6811 38.9242,21.2621 38.9012,21.5171 C38.8152,22.0821 38.6152,22.5931 38.3062,23.0441 C37.6002,24.0651 36.5552,24.5681 35.2232,24.5681 C33.8902,24.5681 32.8762,24.0891 32.1392,23.1271 C31.5982,22.4241 31.2512,21.3781 31.2512,19.8841 L31.2512,14.9571 C31.2512,13.4541 31.5662,12.2931 32.1082,11.5811 C32.8452,10.6191 33.8592,10.1091 35.1602,10.1091 C36.4382,10.1091 37.4532,10.6191 38.1672,11.5811 C38.7002,12.2931 38.9962,13.3921 38.9962,14.8951 L38.9962,17.7721 L33.9252,17.7721 L33.9252,20.3001 C33.9162,21.5981 34.2852,22.2521 35.1602,22.2521 L35.1602,22.2521 Z M29.5622,20.1651 C29.5622,21.4661 29.4512,22.3831 29.2802,22.9801 C28.9402,24.0251 28.1992,24.5681 27.1842,24.5681 C26.2782,24.5681 25.3502,24.0231 24.4992,22.9701 L24.4952,24.3871 L21.9622,24.3871 L21.9622,5.5281 L24.4952,5.5281 L24.4922,11.6771 C25.3152,10.6641 26.2472,10.0871 27.1842,10.0871 C28.1992,10.0871 28.8812,10.6741 29.2222,11.7271 C29.3912,12.2931 29.5622,13.2031 29.5622,14.5351 L29.5622,20.1651 Z M19.8512,24.3871 L17.1772,24.3871 L17.1772,22.8391 C16.1632,24.0011 15.3042,24.5871 14.3672,24.5871 C13.5452,24.5871 12.9742,24.2001 12.6882,23.5001 C12.5142,23.0731 12.3912,22.4081 12.3912,21.4321 L12.3912,10.3131 L15.0662,10.3131 L15.0662,20.7281 L15.0662,21.7131 C15.1292,22.1081 15.2962,22.2521 15.6362,22.2521 C16.1472,22.2521 16.6112,21.8071 17.1772,21.0091 L17.1772,10.3131 L19.8512,10.3131 L19.8512,24.3871 Z M9.7182,24.3871 L6.9032,24.3871 L6.9032,8.2021 L3.9472,8.2021 L3.9472,5.5311 L12.8142,5.5281 L12.8142,8.2021 L9.7182,8.2021 L9.7182,24.3871 Z M42.0942,6.9221 C42.0942,6.9221 41.6822,4.0391 40.4232,2.7701 C38.8252,1.1041 37.0332,1.0951 36.2122,0.9981 C30.3312,0.5741 21.5102,0.5741 21.5102,0.5741 L21.4912,0.5741 C21.4912,0.5741 12.6702,0.5741 6.7892,0.9981 C5.9682,1.0951 4.1772,1.1041 2.5782,2.7701 C1.3182,4.0391 0.9082,6.9221 0.9082,6.9221 C0.9082,6.9221 0.4872,10.3081 0.4872,13.6941 L0.4872,16.8681 C0.4872,20.2531 0.9082,23.6381 0.9082,23.6381 C0.9082,23.6381 1.3182,26.5211 2.5782,27.7911 C4.1772,29.4581 6.2762,29.4051 7.2122,29.5791 C10.5742,29.9001 21.5002,30.0001 21.5002,30.0001 C21.5002,30.0001 30.3312,29.9871 36.2122,29.5641 C37.0332,29.4661 38.8252,29.4581 40.4232,27.7911 C41.6822,26.5211 42.0942,23.6381 42.0942,23.6381 C42.0942,23.6381 42.5142,20.2531 42.5142,16.8681 L42.5142,13.6941 C42.5142,10.3081 42.0942,6.9221 42.0942,6.9221 L42.0942,6.9221 Z" id="Fill-11" fill="#FFFFFF" mask="url(#mask-2)"></path>
                    </g>
                </g>
            </g>
        </g>
    </g>
</svg>