<?xml version="1.0" encoding="utf-8"?>
<svg width="16px" height="37px" viewBox="0 0 16 37" version="1.1" xmlns:xlink="http://www.w3.org/1999/xlink" xmlns="http://www.w3.org/2000/svg">
  <desc>Created with Lunacy</desc>
  <path d="M6.4057 0.895196L0.292551 10.7202C-0.26366 11.6183 -0.00271577 12.8157 0.871331 13.387C1.29589 13.6647 1.80133 13.7567 2.29407 13.6455C2.78869 13.5338 3.21043 13.2321 3.48219 12.7946L5.873 8.95148L5.873 34.8236C5.873 36.0235 6.82698 37 7.99958 37C9.17172 37 10.1257 36.0235 10.1257 34.8236L10.1257 8.951L12.5165 12.7941C12.7883 13.2311 13.2095 13.5329 13.7037 13.6455C14.1969 13.7571 14.7023 13.6657 15.1278 13.387C15.6737 13.0294 16 12.4192 16 11.7555C16 11.3892 15.8984 11.0316 15.7047 10.7168L9.59205 0.893271C9.24271 0.334014 8.64748 0 7.99958 0C7.35169 0 6.75645 0.334014 6.4057 0.895196" id="Fill-1" fill="#216AB0" stroke="none" />
</svg>