<?xml version="1.0" encoding="UTF-8"?>
<svg width="24px" height="16px" viewBox="0 0 24 16" version="1.1" xmlns="http://www.w3.org/2000/svg" xmlns:xlink="http://www.w3.org/1999/xlink">
    <!-- Generator: Sketch 63.1 (92452) - https://sketch.com -->
    <title>小標</title>
    <desc>Created with Sketch.</desc>
    <g id="生源泰-電腦用" stroke="none" stroke-width="1" fill="none" fill-rule="evenodd">
        <g id="1首頁" transform="translate(-922.000000, -3081.000000)" fill="#0E77AF">
            <g id="實驗室" transform="translate(0.000000, 2562.000000)">
                <g id="右邊圖" transform="translate(920.000000, 354.000000)">
                    <g id="小標" transform="translate(2.000000, 165.000000)">
                        <path d="M23.9992272,7.72372038 C24.057542,11.9718193 20.8080458,15.5437693 16.7694538,15.6977194 C15.6866416,15.7289898 14.6621383,15.512499 13.7258009,15.1132017 C13.2569882,14.8979117 13.0523217,14.3121686 13.286728,13.8202672 L13.286728,13.7889969 C13.4914004,13.3884803 13.9602072,13.2044792 14.3409712,13.3884803 C15.2191169,13.7889969 16.2138803,13.942947 17.2681235,13.7889969 C19.8728207,13.419763 21.9217102,11.1718453 22.186032,8.43214945 C22.5370561,4.67607506 19.551595,1.50439523 15.9509049,1.87356755 C13.3736352,2.11892706 11.2080401,4.30548639 10.8854679,7.07646492 C10.797425,7.84621539 10.8271532,8.5846832 11.0020974,9.26304889 C11.0901403,9.60223174 10.9723692,9.94018298 10.7391103,10.1554668 C10.2417286,10.6173171 9.45163165,10.3707568 9.30527403,9.69361651 C9.07087353,8.67729958 9.0125588,7.56959786 9.21723115,6.42925873 C9.8026616,3.07376248 12.4370987,0.456610891 15.6569662,0.0560327473 C20.1059449,-0.49843391 23.9410998,3.13503462 23.9993502,7.72336321 L23.9992272,7.72372038 Z M8.36764861,15.9443475 C11.5875161,15.5438309 14.2219532,12.9266793 14.8073836,9.5711215 C15.012056,8.43213713 14.9537412,7.32320381 14.7193407,6.2768974 C14.5729831,5.59976331 13.7828862,5.32191418 13.2855045,5.81504712 C13.051104,6.03033709 12.9630494,6.36951377 13.0225174,6.70746502 C13.1986032,7.41588177 13.2271897,8.15434958 13.1391469,8.92410005 C12.7881228,11.6639191 10.6510674,13.850503 8.01663037,14.1269974 C4.41594034,14.4661803 1.43053773,11.3258139 1.78150329,7.56964712 C2.04449036,4.8298281 4.09348525,2.58197199 6.69941184,2.21279966 C7.753655,2.05884957 8.74841844,2.24407001 9.62656412,2.61331623 C10.0358971,2.79853666 10.4749699,2.61331623 10.6808073,2.21279966 L10.6808073,2.18152932 C10.9152078,1.68839638 10.739122,1.10387867 10.2417344,0.888594854 C9.15892227,0.426744573 7.92975249,0.211460762 6.64104442,0.365410856 C3.12846168,0.73344395 0.317810942,3.78248714 0.0250957139,7.5071557 C-0.354526665,12.4335587 3.62578486,16.5289391 8.36747884,15.9442366 L8.36764861,15.9443475 Z" id="Page-1"></path>
                    </g>
                </g>
            </g>
        </g>
    </g>
</svg>