<?xml version="1.0" encoding="UTF-8"?>
<svg width="19px" height="19px" viewBox="0 0 19 19" version="1.1" xmlns="http://www.w3.org/2000/svg" xmlns:xlink="http://www.w3.org/1999/xlink">
    <!-- Generator: Sketch 63.1 (92452) - https://sketch.com -->
    <title>小標</title>
    <desc>Created with Sketch.</desc>
    <g id="生源泰-電腦用" stroke="none" stroke-width="1" fill="none" fill-rule="evenodd">
        <g id="1首頁" transform="translate(-922.000000, -3241.000000)" fill="#0E77AF">
            <g id="實驗室" transform="translate(0.000000, 2562.000000)">
                <g id="右邊圖" transform="translate(920.000000, 354.000000)">
                    <g id="小標" transform="translate(2.000000, 325.000000)">
                        <path d="M16.6647227,3.28544686 C16.5063893,3.08752913 16.3084853,2.88961141 16.110556,2.69168102 C14.40846,1.02917216 12.0729293,-4.51194637e-13 9.500076,-4.51194637e-13 C6.92722267,-4.51194637e-13 4.59174267,1.02917216 2.889596,2.69168102 C2.69167933,2.88959874 2.49376267,3.08751647 2.33542933,3.28544686 C0.870858667,4.94795572 0,7.12498733 0,9.5 C0,11.8750127 0.870833333,14.0521709 2.29583333,15.7145531 C2.45416667,15.9124709 2.65207067,16.1103886 2.85,16.308319 C4.552096,17.9708278 6.92714667,19 9.5,19 C12.0728533,19 14.4478533,17.9708278 16.15,16.2687988 C16.3479167,16.070881 16.5062373,15.9125595 16.7041667,15.6750329 C18.1291667,14.0521203 19,11.8750127 19,9.5 C19,7.12498733 18.1291667,4.94782906 16.6645707,3.28544686 L16.6647227,3.28544686 Z M18.2084853,9.10429122 L15.0022987,9.10429122 C14.9627153,7.91678489 14.6064653,6.21475581 14.0522987,4.94808239 C14.7647987,4.63141403 15.437728,4.23557859 16.0710613,3.76057606 C17.2981573,5.18558366 18.089824,7.125114 18.2085613,9.10441789 L18.2084853,9.10429122 Z M9.896112,1.14806212 C11.083612,2.05849631 12.1919453,3.20640643 12.9044453,4.51260007 C11.9544453,4.8688393 11.083612,5.02717348 9.896112,5.06676969 L9.896112,1.14806212 Z M9.10444533,5.06689636 C7.91694533,5.02731281 7.046112,4.82939509 6.096112,4.51272673 C6.808612,3.20648243 7.91694533,2.01895077 9.10444533,1.14818879 L9.10444533,5.06689636 Z M9.10444533,5.85856725 L9.10444533,9.10429122 L4.82944533,9.10429122 C4.86902867,7.91678489 5.18568267,6.4126102 5.73987467,5.22523053 C6.80863733,5.62106598 7.91697067,5.81899637 9.10439467,5.85856725 L9.10444533,5.85856725 Z M9.10444533,9.89621545 L9.10444533,13.062899 C7.91694533,13.1024825 6.769016,13.3399965 5.700152,13.7358066 C5.14598533,12.5483003 4.86891467,11.4795572 4.78972267,9.89626611 L9.10444533,9.89621545 Z M9.10444533,13.8545699 L9.10444533,17.8524445 C7.91694533,16.9420104 6.808612,15.7545294 6.056592,14.4481331 C7.006592,14.0918938 7.91702133,13.8939634 9.10444533,13.8543672 L9.10444533,13.8545699 Z M9.896112,13.8545699 C11.083612,13.8941534 11.994016,14.0920712 12.9439653,14.4483357 C12.1918693,15.7941762 11.083536,16.9421117 9.896112,17.8526472 L9.896112,13.8545699 Z M9.896112,13.062899 L9.896112,9.89621545 L14.171112,9.89621545 C14.1315287,11.4795572 13.8148747,12.5483763 13.2606827,13.7357559 C12.231516,13.3399205 11.0835867,13.1419901 9.89616267,13.0628483 L9.896112,13.062899 Z M9.896112,9.10454456 L9.896112,5.85882058 C11.083612,5.81923704 12.1919453,5.5817231 13.260632,5.22548387 C13.8147987,6.4129902 14.1314653,7.91716489 14.1710613,9.10454456 L9.896112,9.10454456 Z M13.656592,4.23570526 C12.983688,2.96903183 12.033688,1.86069259 10.9254053,0.950207734 C12.667072,1.187709 14.2504053,2.0189761 15.477552,3.16688622 C14.9233853,3.60231788 14.290052,3.91898623 13.6567187,4.23565459 L13.656592,4.23570526 Z M8.07540533,0.910687524 C6.92750133,1.82112171 6.017072,2.96903183 5.34421867,4.19618505 C4.71088533,3.91908757 4.077552,3.56284834 3.52338533,3.16701289 C4.75048133,2.01910277 6.33386533,1.18783567 8.075532,0.910763524 L8.07540533,0.910687524 Z M2.96921867,3.76070272 C3.602552,4.23570526 4.275456,4.6315407 4.98798133,4.94820906 C4.39421867,6.25445336 4.077552,7.91703822 4.03798133,9.10441789 L0.792274667,9.10441789 C0.911024667,7.12524067 1.702704,5.18558366 2.96937067,3.76057606 L2.96921867,3.76070272 Z M0.792122667,9.89621545 L3.99830933,9.89621545 C4.03789267,11.4795572 4.39414267,12.7462306 4.94830933,14.0524243 C4.23580933,14.3690926 3.56288,14.7649281 2.92954667,15.2399306 C1.66288,13.7753521 0.910784,11.8753927 0.792046667,9.89608878 L0.792122667,9.89621545 Z M5.304496,14.7252812 C5.9774,15.9919546 6.9274,17.1398647 8.075456,18.0502989 C6.29421867,17.7732015 4.710936,16.9419597 3.48378933,15.7544534 C4.077552,15.3586179 4.67128933,15.0419496 5.30462267,14.7252812 L5.304496,14.7252812 Z M10.925456,18.0898191 C12.07336,17.1398141 13.02336,16.0314748 13.696416,14.7648014 C14.3297493,15.0418989 14.9630827,15.3981381 15.5172493,15.7939736 C14.2901533,16.9814799 12.6672493,17.7731508 10.9255827,18.0898191 L10.925456,18.0898191 Z M16.0711627,15.2002837 C15.4378293,14.7252812 14.7649253,14.3294458 14.0524,14.0127774 C14.6065667,12.746104 14.9628293,11.4399103 15.0024,9.85656857 L18.2085867,9.85656857 C18.0898367,11.875342 17.3377533,13.7754028 16.0710867,15.2004104 L16.0711627,15.2002837 Z" id="Page-1"></path>
                    </g>
                </g>
            </g>
        </g>
    </g>
</svg>