<?xml version="1.0" encoding="UTF-8"?>
<svg width="218px" height="52px" viewBox="0 0 218 52" version="1.1" xmlns="http://www.w3.org/2000/svg" xmlns:xlink="http://www.w3.org/1999/xlink">
    <!-- Generator: Sketch 63.1 (92452) - https://sketch.com -->
    <title>logo</title>
    <desc>Created with Sketch.</desc>
    <defs>
        <polygon id="path-1" points="0 0.288204082 21.8516435 0.288204082 21.8516435 46 0 46"></polygon>
        <polygon id="path-3" points="0.598482801 0.323076923 15.9640031 0.323076923 15.9640031 11.6173688 0.598482801 11.6173688"></polygon>
    </defs>
    <g id="生源泰-電腦用" stroke="none" stroke-width="1" fill="none" fill-rule="evenodd">
        <g id="1首頁" transform="translate(-78.000000, -19.000000)">
            <g id="上標">
                <g id="logo" transform="translate(78.000000, 19.000000)">
                    <path d="M86.5296857,26.1212296 C83.8994401,26.1212296 82.3454183,24.5755035 82.3454183,20.8412836 L82.3454183,10.2707912 C82.3454183,10.119495 82.2266755,10 82.0787183,10 L78.2666999,10 C78.1196851,10 78,10.119495 78,10.2707912 L78,21.0079985 C78,26.7967621 81.1664726,30 86.5014136,30 C91.8382394,30 95,26.7967621 95,21.0079985 L95,10.2707912 C95,10.119495 94.8821997,10 94.7370697,10 L90.9768834,10 C90.830811,10 90.7120683,10.119495 90.7120683,10.2707912 L90.7120683,20.8412836 C90.7120683,24.5755035 89.1816065,26.1212296 86.5296857,26.1212296" id="Fill-1" fill="#3E3A39"></path>
                    <path d="M115.598522,21.3323857 L106.708076,10.2030293 C106.618724,10.0903387 106.427922,10 106.284588,10 L103.261538,10 C103.115412,10 103,10.1145532 103,10.2607715 L103,28.7392285 C103,28.8835841 103.115412,29 103.261538,29 L106.971475,29 C107.118533,29 107.235806,28.8835841 107.235806,28.7392285 L107.235806,17.7262879 C107.235806,17.5810009 107.308404,17.5549238 107.400547,17.6676143 L116.314262,28.7988334 C116.402683,28.90873 116.596277,29 116.739611,29 L119.7366,29 C119.882727,29 120,28.8835841 120,28.7392285 L120,10.2607715 C120,10.1145532 119.882727,10 119.7366,10 L116.023871,10 C115.878675,10 115.762332,10.1145532 115.762332,10.2607715 L115.762332,21.2746434 C115.762332,21.4189991 115.690665,21.4450762 115.598522,21.3323857" id="Fill-3" fill="#3E3A39"></path>
                    <path d="M128.243871,29 L131.756129,29 C131.890649,29 132,28.8835841 132,28.7392285 L132,10.2607715 C132,10.1145532 131.890649,10 131.756129,10 L128.243871,10 C128.110219,10 128,10.1145532 128,10.2607715 L128,28.7392285 C128,28.8835841 128.110219,29 128.243871,29" id="Fill-5" fill="#3E3A39"></path>
                    <path d="M154.108269,15.8744373 C154.209245,15.9824686 154.371187,15.9938403 154.479784,15.8924425 L156.910824,13.6067283 C157.017516,13.5053305 157.031805,13.3319119 156.935592,13.2210377 C155.143747,11.1390666 152.474556,10 149.298581,10 C143.38959,10 139,14.1705757 139,19.9985785 C139,25.827529 143.38959,30 149.270956,30 C152.474556,30 155.143747,28.8571429 156.935592,26.753376 C157.031805,26.6406065 157.017516,26.4624497 156.910824,26.3629472 L154.479784,24.0781805 C154.371187,23.9767828 154.209245,23.9862592 154.112079,24.0961857 C152.866076,25.4816394 151.327623,26.185738 149.51768,26.185738 C145.965426,26.185738 143.442936,23.6441602 143.442936,19.9985785 C143.442936,16.3529969 145.965426,13.8095238 149.51768,13.8095238 C151.324766,13.8095238 152.866076,14.51457 154.108269,15.8744373" id="Fill-7" fill="#3E3A39"></path>
                    <path d="M167.689952,21.0738653 L176.167775,21.0738653 C176.32103,21.0738653 176.445,20.9574552 176.445,20.8121753 L176.445,17.9149593 C176.445,17.7696794 176.32103,17.652338 176.167775,17.652338 L167.689952,17.652338 C167.539625,17.652338 167.416631,17.5349966 167.416631,17.3897167 L167.416631,13.7903147 C167.416631,13.6441035 167.539625,13.5276934 167.689952,13.5276934 L177.364529,13.5276934 C177.512903,13.5276934 177.636874,13.4103519 177.636874,13.2660033 L177.636874,10.26169 C177.636874,10.1145476 177.512903,10 177.364529,10 L164.530169,10 L164.314441,10 L162.945885,10 L162.277225,10 C162.124947,10 162,10.0810215 162,10.1815998 C162,10.2831095 162.086877,10.4460837 162.194253,10.5503872 L162.752608,11.0989119 C162.859984,11.2013528 162.945885,11.3997157 162.945885,11.5477894 L162.945885,26.31791 C162.945885,27.8005098 164.174852,29 165.686901,29 L177.722775,29 C177.87603,29 178,28.8835898 178,28.73831 L178,25.7330654 C178,25.5868542 177.87603,25.4704441 177.722775,25.4704441 L167.689952,25.4704441 C167.539625,25.4704441 167.416631,25.3549652 167.416631,25.2078228 L167.416631,21.3364866 C167.416631,21.1902755 167.539625,21.0738653 167.689952,21.0738653" id="Fill-9" fill="#3E3A39"></path>
                    <path d="M188.148681,10 L184.270504,10 C184.121823,10 184,10.1145532 184,10.2607715 L184,26.3177785 C184,27.800451 185.207674,29 186.698321,29 L197.729496,29 C197.881055,29 198,28.8835841 198,28.7392285 L198,25.6798196 C198,25.5336013 197.881055,25.4162541 197.729496,25.4162541 L188.68777,25.4162541 C188.541966,25.4162541 188.422062,25.3007696 188.422062,25.1545512 L188.422062,10.2607715 C188.422062,10.1145532 188.30024,10 188.148681,10" id="Fill-11" fill="#3E3A39"></path>
                    <path d="M208.421103,25.1545512 L208.421103,10.2607715 C208.421103,10.1145532 208.301199,10 208.153477,10 L204.270504,10 C204.121823,10 204,10.1145532 204,10.2607715 L204,26.3177785 C204,27.800451 205.209592,29 206.698321,29 L217.732374,29 C217.877218,29 218,28.8835841 218,28.7392285 L218,25.6788883 C218,25.53267 217.877218,25.4153228 217.732374,25.4153228 L208.692566,25.4153228 C208.541007,25.4153228 208.421103,25.2998382 208.421103,25.1545512" id="Fill-13" fill="#3E3A39"></path>
                    <path d="M92.1535627,47 L93.8452088,47 C93.9312039,47 94,46.9501711 94,46.8876585 L94,38.1123415 C94,38.0489229 93.9312039,38 93.8452088,38 L92.1535627,38 C92.0712531,38 92,38.0489229 92,38.1123415 L92,46.8876585 C92,46.9501711 92.0712531,47 92.1535627,47" id="Fill-15" fill="#9E9E9F"></path>
                    <path d="M101.50777,46.8311563 C99.6794312,46.8311563 98.5979685,45.3826802 98.5979685,43.0014514 C98.5979685,40.6037736 99.6794312,39.1678761 101.50777,39.1678761 C103.319655,39.1678761 104.402031,40.6037736 104.402031,43.0014514 C104.402031,45.3826802 103.319655,46.8311563 101.50777,46.8311563 M101.50777,38 C98.6372778,38 97,40.0193517 97,43.0014514 C97,45.9651669 98.6372778,48 101.50777,48 C104.362722,48 106,45.9651669 106,43.0014514 C106,40.0193517 104.362722,38 101.50777,38" id="Fill-17" fill="#9E9E9F"></path>
                    <path d="M108.116114,39.1342863 L111.146057,39.1342863 C111.209143,39.1342863 111.261257,39.1841152 111.261257,39.2439098 L111.261257,46.8876585 C111.261257,46.9501711 111.314286,47 111.376457,47 L112.622629,47 C112.683886,47 112.736914,46.9501711 112.736914,46.8876585 L112.736914,39.2439098 C112.736914,39.1841152 112.790857,39.1342863 112.853029,39.1342863 L115.8848,39.1342863 C115.949714,39.1342863 116,39.0871754 116,39.0255688 L116,38.1123415 C116,38.0489229 115.949714,38 115.8848,38 L108.116114,38 C108.053943,38 108,38.0489229 108,38.1123415 L108,39.0255688 C108,39.0871754 108.053943,39.1342863 108.116114,39.1342863" id="Fill-19" fill="#9E9E9F"></path>
                    <path d="M120.017758,43.0598953 L124.35398,43.0598953 C124.41877,43.0598953 124.473231,43.0091605 124.473231,42.9502718 L124.473231,42.0379505 C124.473231,41.9781558 124.41877,41.927421 124.35398,41.927421 L120.017758,41.927421 C119.953908,41.927421 119.899447,41.8748742 119.899447,41.8150795 L119.899447,39.2439098 C119.899447,39.1841152 119.953908,39.1342863 120.017758,39.1342863 L124.744597,39.1342863 C124.810326,39.1342863 124.86197,39.0871754 124.86197,39.0255688 L124.86197,38.1123415 C124.86197,38.0489229 124.810326,38 124.744597,38 L119.150139,38 L118.370783,38 L118.05998,38 C117.996129,38 117.980166,38.0362392 118.027115,38.0779142 L118.285336,38.3225287 C118.333224,38.3669217 118.370783,38.4484598 118.370783,38.5118784 L118.370783,46.8876585 C118.370783,46.9501711 118.422427,47 118.488156,47 L124.882627,47 C124.946478,47 125,46.9501711 125,46.8876585 L125,45.9626535 C125,45.9010469 124.946478,45.852124 124.882627,45.852124 L120.017758,45.852124 C119.953908,45.852124 119.899447,45.8022951 119.899447,45.7415945 L119.899447,43.1722368 C119.899447,43.1124421 119.953908,43.0598953 120.017758,43.0598953" id="Fill-21" fill="#9E9E9F"></path>
                    <path d="M135.392686,41.2878568 C135.392686,41.2878568 135.398583,41.3188195 135.40743,41.357523 C135.41431,41.3942912 135.477218,41.4242864 135.544058,41.4242864 L136.884787,41.4242864 C136.951627,41.4242864 137.003723,41.3942912 136.999791,41.357523 L136.992911,41.2878568 C136.788459,39.3923561 135.420208,38 132.801658,38 C129.97964,38 128,40.0183841 128,43.0411224 C128,45.9651669 129.760444,48 132.627678,48 C135.247211,48 136.715722,46.5650701 136.920173,44.686986 C136.920173,44.686986 136.925088,44.6560232 136.927054,44.614417 C136.92902,44.5786164 136.876924,44.5476536 136.810084,44.5476536 L135.471321,44.5476536 C135.405464,44.5476536 135.34059,44.5786164 135.332726,44.614417 L135.318965,44.686986 C135.043742,45.9806483 134.214142,46.8311563 132.700415,46.8311563 C130.925227,46.8311563 129.731939,45.3555878 129.731939,42.9704886 C129.731939,40.7014998 130.9095,39.1678761 132.773153,39.1678761 C134.286879,39.1678761 135.114514,39.9922593 135.392686,41.2878568" id="Fill-23" fill="#9E9E9F"></path>
                    <path d="M158.472262,38.1123415 L158.472262,42.3296759 C158.472262,43.2247836 158.48459,44.3717536 158.511143,45.3647071 C158.511143,45.4254077 158.488383,45.4317495 158.455192,45.3755788 L154.232338,38.0996577 C154.201043,38.044393 154.123281,38 154.055951,38 L152.119488,38 C152.051209,38 152,38.0489229 152,38.1123415 L152,46.8876585 C152,46.9501711 152.051209,47 152.119488,47 L153.424372,47 C153.487909,47 153.54386,46.9501711 153.54386,46.8876585 L153.54386,42.6956916 C153.54386,41.8042078 153.530583,40.692571 153.491702,39.6923696 C153.489806,39.630763 153.513514,39.6244212 153.545756,39.676968 L157.725936,46.9012482 C157.757231,46.954701 157.837838,47 157.901375,47 L159.879564,47 C159.946894,47 160,46.9501711 160,46.8876585 L159.987672,38.1123415 C159.987672,38.0489229 159.931721,38 159.867236,38 L158.590801,38 C158.527264,38 158.472262,38.0489229 158.472262,38.1123415" id="Fill-25" fill="#9E9E9F"></path>
                    <path d="M167.506856,46.8311563 C165.679431,46.8311563 164.59614,45.3826802 164.59614,43.0014514 C164.59614,40.6037736 165.679431,39.1678761 167.506856,39.1678761 C169.320569,39.1678761 170.402031,40.6037736 170.402031,43.0014514 C170.402031,45.3826802 169.320569,46.8311563 167.506856,46.8311563 M167.506856,38 C164.637278,38 163,40.0193517 163,43.0014514 C163,45.9651669 164.637278,48 167.506856,48 C170.363636,48 172,45.9651669 172,43.0014514 C172,40.0193517 170.363636,38 167.506856,38" id="Fill-27" fill="#9E9E9F"></path>
                    <path d="M176.490585,38 L175.125867,38 C175.056492,38 175,38.0489229 175,38.1123415 L175,46.8876585 C175,46.9501711 175.056492,47 175.125867,47 L181.874133,47 C181.941526,47 182,46.9501711 182,46.8876585 L182,45.9236964 C182,45.8611838 181.941526,45.8131669 181.874133,45.8131669 L176.739346,45.8131669 C176.672944,45.8131669 176.61447,45.764244 176.61447,45.7008254 L176.61447,38.1123415 C176.61447,38.0489229 176.557978,38 176.490585,38" id="Fill-29" fill="#9E9E9F"></path>
                    <path d="M188.506856,46.8311563 C186.678517,46.8311563 185.597969,45.3826802 185.597969,43.0014514 C185.597969,40.6037736 186.678517,39.1678761 188.506856,39.1678761 C190.319655,39.1678761 191.402031,40.6037736 191.402031,43.0014514 C191.402031,45.3826802 190.319655,46.8311563 188.506856,46.8311563 M188.506856,38 C185.637278,38 184,40.0193517 184,43.0014514 C184,45.9651669 185.637278,48 188.506856,48 C191.361808,48 193,45.9651669 193,43.0014514 C193,40.0193517 191.361808,38 188.506856,38" id="Fill-31" fill="#9E9E9F"></path>
                    <path d="M202.384846,41.2878568 C202.384846,41.2878568 202.392672,41.3188195 202.400498,41.357523 C202.408324,41.3942912 202.470932,41.4242864 202.537453,41.4242864 L203.883532,41.4242864 C203.95201,41.4242864 204.001901,41.3942912 204,41.357523 L203.995053,41.2878568 C203.790598,39.3923561 202.430824,38 199.807144,38 C196.998575,38 195,40.0183841 195,43.0411224 C195,45.9651669 196.679664,48 199.533233,48 C200.594639,48 201.402678,47.7223029 201.965174,47.1920658 C202.014087,47.1465893 202.077674,47.0585389 202.105065,46.997581 L202.448432,46.2835027 C202.476802,46.2235123 202.503215,46.2273827 202.505171,46.2941461 L202.55604,47.684567 C202.557997,47.752298 202.615714,47.8045477 202.683213,47.8045477 L203.768098,47.8045477 C203.835598,47.8045477 203.892336,47.752298 203.892336,47.684567 L203.892336,43.161103 C203.892336,43.0943396 203.835598,43.0411224 203.768098,43.0411224 L200.23562,43.0411224 C200.16812,43.0411224 200.11236,43.0943396 200.11236,43.161103 L200.11236,44.1480406 C200.11236,44.2119013 200.16812,44.2680213 200.23562,44.2680213 L202.220499,44.2680213 C202.288977,44.2680213 202.341802,44.3193033 202.335933,44.383164 C202.200934,45.864538 201.144419,46.8311563 199.707362,46.8311563 C197.92596,46.8311563 196.723685,45.3555878 196.723685,42.9704886 C196.723685,40.7014998 197.92596,39.1678761 199.779753,39.1678761 C201.300939,39.1678761 202.125608,39.9922593 202.384846,41.2878568" id="Fill-33" fill="#9E9E9F"></path>
                    <path d="M213.245576,38.0996678 L210.058923,43.6239807 C210.026081,43.6765328 210,43.7725763 210,43.8341891 L210,46.8876472 C210,46.9510722 210.056025,47 210.122675,47 L211.437327,47 C211.503977,47 211.55807,46.9510722 211.55807,46.8876472 L211.55807,43.5913621 C211.55807,43.5288432 211.588014,43.436424 211.621822,43.3838719 L214.985244,38.0978556 C215.019052,38.0434914 214.992972,38 214.925355,38 L213.425242,38 C213.357626,38 213.277453,38.0434914 213.245576,38.0996678" id="Fill-35" fill="#9E9E9F"></path>
                    <path d="M207.624699,38 L206.074518,38 C206.008635,38 205.980538,38.0437852 206.014448,38.0965061 L209.164222,42.9620202 C209.198132,43.0129539 209.252389,43.0129539 209.284361,42.960233 L209.977098,41.7762466 C210.008102,41.7244193 210.008102,41.6368489 209.974192,41.5850216 L207.805876,38.0982932 C207.770997,38.0437852 207.692519,38 207.624699,38" id="Fill-37" fill="#9E9E9F"></path>
                    <path d="M146,42.0062412 L146,43.1640829 L146,44.1044896 L146,46.8876585 C146,46.9501711 146.07311,47 146.157373,47 L147.843866,47 C147.929368,47 148,46.9501711 148,46.8876585 L148,38.1123415 C148,38.0489229 147.929368,38 147.843866,38 L146.157373,38 C146.07311,38 146,38.0489229 146,38.1123415 L146,40.8828267 L146,42.0062412 Z" id="Fill-39" fill="#9E9E9F"></path>
                    <path d="M141.464199,38 L140.122747,38 C140.056503,38 140,38.0489229 140,38.1123415 L140,46.8876585 C140,46.9501711 140.056503,47 140.122747,47 L141.464199,47 C141.532392,47 141.585972,46.9501711 141.585972,46.8876585 L141.585972,43.2755184 C141.585972,43.2130058 141.6415,43.1640829 141.709693,43.1640829 L145.877253,43.1640829 C145.944472,43.1640829 146,43.116066 146,43.0544594 L146,42.1167707 C146,42.0551641 145.944472,42.0062412 145.877253,42.0062412 L141.709693,42.0062412 C141.6415,42.0062412 141.585972,41.9555063 141.585972,41.8920878 L141.585972,38.1123415 C141.585972,38.0489229 141.532392,38 141.464199,38" id="Fill-41" fill="#9E9E9F"></path>
                    <path d="M84.3753145,45.852124 L82.6269368,45.852124 C82.5648259,45.852124 82.5101311,45.8022951 82.5101311,45.7415945 L82.5101311,43.0155023 C82.5101311,42.9557077 82.5648259,42.9049728 82.6269368,42.9049728 L84.296517,42.9049728 C84.5134419,42.9049728 84.734075,42.9049728 85.0075487,42.9448359 C85.8186995,43.0363398 86.4073633,43.425911 86.4073633,44.4043688 C86.4073633,45.2768271 85.803867,45.7733038 85.0233082,45.8385343 C84.8425374,45.852124 84.5978016,45.852124 84.3753145,45.852124 M86.2182492,42.1502919 C87.1258112,41.8277632 87.656072,41.2470304 87.656072,40.2703845 C87.656072,39.0192269 86.805986,38.2491444 85.2967819,38.0516408 C84.8314131,38 84.5292014,38 84.0619785,38 L81.1177328,38 C81.0528407,38 81,38.0489229 81,38.1123415 L81,39.0627139 C81,39.1225086 81.0546947,39.1723374 81.1195868,39.1723374 C81.7388425,39.1723374 84.579261,39.1514999 84.7748643,39.1750554 C85.5294663,39.2547816 86.0652894,39.630763 86.0652894,40.426213 C86.0652894,41.1564325 85.707456,41.6130461 84.8712753,41.7426012 C84.6256125,41.7842762 84.3920011,41.796054 84.1583896,41.796054 L82.6269368,41.796054 C82.5648259,41.796054 82.5101311,41.7426012 82.5101311,41.6819005 L82.5101311,39.9088987 C82.5101311,39.8491041 82.4582175,39.7983692 82.3933254,39.7983692 L81.1177328,39.7983692 C81.0528407,39.7983692 81,39.8491041 81,39.9088987 L81,46.8876585 C81,46.9501711 81.0528407,47 81.1177328,47 L84.2269898,47 C84.70441,47 85.0233082,47 85.489604,46.9338635 C86.7373858,46.7662573 88,45.983491 88,44.3400443 C88,43.1785786 87.3825983,42.5163076 86.2201033,42.2146165 C86.1570653,42.2010268 86.1570653,42.1720354 86.2182492,42.1502919" id="Fill-43" fill="#9E9E9F"></path>
                    <path d="M24.7052928,51.9677107 L24.8190188,51.9752717 C25.4411673,52.0007899 26.0489806,52.0083508 26.6596609,51.9894485 L26.7265586,51.9894485 C31.0051435,51.9894485 35.6210838,51.0282633 40.0783811,49.2060755 C52.4812122,44.1336265 60.2556791,33.8743692 57.4144388,26.337052 C55.8595454,22.2144467 51.3582868,19.5936341 45.0679929,19.1494286 C45.0364554,19.144703 45.0192531,19.1437579 45.0039622,19.1418677 C44.9819816,19.1390323 44.9590452,19.1352518 44.9351532,19.1305263 C44.9131725,19.1248555 44.8806793,19.1050081 44.8663441,19.0879959 C44.8434078,19.056807 44.7669533,18.960405 44.9552225,18.1702862 L47.3109767,8.91001874 C47.352071,8.72855606 47.4170573,8.47904487 47.5183596,8.18227777 L48.0946353,6 L33.2290137,6 C32.9767139,6 32.9356196,6.04820102 32.9337082,6.04820102 C32.9356196,6.04820102 32.9317968,6.11246906 33.1229331,6.28448056 C33.8435167,6.9432279 34.6405549,8.18416801 34.3299585,10.3503788 C34.2783517,10.752054 34.1330882,11.3333016 34.0155394,11.8020802 L33.9562871,12.04025 C33.2452603,14.8463057 30.8531901,24.2039204 28.940872,31.6902011 C27.8762431,35.8468307 26.9616562,39.4278833 26.5640928,40.9882734 C26.5172644,41.1801323 26.5497575,41.3606499 26.6539268,41.4939116 C26.7561847,41.6243379 26.9186505,41.6961668 27.1136095,41.6961668 L38.1995118,41.6961668 C38.6238343,41.6961668 39.0586692,41.3587597 39.1657055,40.9447979 L43.5044984,23.8702937 C43.6201358,23.4336491 43.4519359,22.8391698 43.1432509,22.5726465 C41.4316258,21.1058232 39.1618828,20.0236629 36.3990084,19.3611351 C35.5140475,19.1390323 35.5140475,19.1050081 35.5169146,19.0133316 C35.5207373,18.8980272 35.6382861,18.8866858 35.9479268,18.8611676 C36.6551309,18.8829053 37.38336,18.9377222 38.187088,19.0237279 C43.9976299,19.6957069 48.1787353,22.3269158 49.6600412,26.2444305 C52.5404645,33.8961069 44.7038783,44.2725589 32.196878,49.3761968 C29.8516362,50.3411624 27.3706877,51.0764643 24.8190188,51.5594197 C24.3211089,51.6492059 24.0372716,51.7796322 24,51.8268881 C24,51.8391747 24.0086011,51.8618575 24.0181579,51.8713087 C24.0200693,51.8713087 24.0410943,51.8807599 24.0430057,51.8807599 C24.0821886,51.8835952 24.1452635,51.8902111 24.1787124,51.9270707 C24.2905271,51.9393572 24.4998213,51.953534 24.7052928,51.9677107" id="Fill-45" fill="#006AB3"></path>
                    <g id="编组" transform="translate(0.000000, 5.000000)">
                        <mask id="mask-2" fill="white">
                            <use xlink:href="#path-1"></use>
                        </mask>
                        <g id="Clip-48"></g>
                        <path d="M2.8312087,38.9648163 C6.78451304,45.0865714 15.0144261,46 19.5703391,46 C19.6746,46 19.7740783,46 19.8726,45.9981224 L20.1758174,46 C20.6875565,46 21.1753826,45.9887347 21.5857304,45.970898 C21.7426,45.9643265 21.8181652,45.9436735 21.8516435,45.9277143 C21.8248609,45.9051837 21.7674696,45.8601224 21.6268609,45.7981633 C10.0663391,40.7944898 12.2099043,28.9368163 13.0143391,24.472 L19.0069478,0.503183673 C19.0174696,0.459061224 19.0079043,0.417755102 18.9811217,0.382081633 C18.9323391,0.322938776 18.8424261,0.288204082 18.7372087,0.288204082 L4.33103478,0.288204082 C4.07946957,0.288204082 4.04025217,0.337020408 4.03833913,0.337020408 C4.04025217,0.337020408 4.03355652,0.400857143 4.22868696,0.575469388 C4.91929565,1.196 5.97625217,2.65297959 5.27703478,5.45897959 L0.830165217,23.2619184 C-0.760530435,28.9227347 -0.0507913043,34.4981224 2.8312087,38.9648163" id="Fill-47" fill="#006AB3" mask="url(#mask-2)"></path>
                    </g>
                    <path d="M66.349968,5.22080068 C65.2301711,6.90434651 63.0435203,7.49800736 61.4682127,6.5457392 C59.8978998,5.59648454 59.526299,3.46292168 60.6500917,1.77937586 C61.7718865,0.0958300266 63.9535426,-0.496826321 65.530848,0.452428338 C67.1021599,1.403692 67.4737607,3.53725485 66.349968,5.22080068" id="Fill-49" fill="#00B2CF"></path>
                    <g id="编组" transform="translate(41.000000, 0.000000)">
                        <mask id="mask-4" fill="white">
                            <use xlink:href="#path-3"></use>
                        </mask>
                        <g id="Clip-52"></g>
                        <path d="M6.33722353,9.36609231 C6.10098824,10.0833231 5.58804706,10.7424 4.85957647,11.1697846 C3.4064,12.0199385 1.63134118,11.6220923 0.9104,10.2891692 C0.181929412,8.94609231 0.772988235,7.17286154 2.22992941,6.31901538 C2.9584,5.89347692 3.76310588,5.78270769 4.47651765,5.93870769 C4.50004706,5.94701538 4.53957647,5.95624615 4.57157647,5.96363077 C5.64828235,6.20270769 6.86710588,6.03193846 7.96734118,5.38855385 C9.06663529,4.74516923 9.8384,3.75193846 10.1998118,2.66824615 C10.2073412,2.63593846 10.2224,2.59901538 10.2280471,2.56947692 C10.4699294,1.85593846 10.9791059,1.19778462 11.7047529,0.771323077 C13.1616941,-0.0788307692 14.9273412,0.3144 15.6539294,1.65655385 C16.3786353,2.99132308 15.7904,4.76916923 14.3334588,5.62301538 C13.6068706,6.04763077 12.7993412,6.16209231 12.0831059,6.00055385 C10.9828706,5.73009231 9.72828235,5.89532308 8.59887059,6.55716923 C7.46945882,7.21809231 6.68451765,8.24547692 6.33722353,9.36609231" id="Fill-51" fill="#006AB3" mask="url(#mask-4)"></path>
                    </g>
                    <path d="M53.0850173,5.89094595 C52.3449943,5.72621845 51.697596,5.27513327 51.320272,4.58174544 C50.5685491,3.19401206 51.1866974,1.34848947 52.6872183,0.467388914 C54.2013892,-0.417542518 56.0314593,-0.00859693209 56.7841572,1.37913645 C57.1595312,2.073482 57.1907311,2.87988056 56.9499068,3.62211201 C56.9372318,3.64797039 56.9235818,3.68915227 56.9128569,3.7226724 C56.5394329,4.84416017 56.5872078,6.06716606 57.1556312,7.11490955 C57.7240547,8.16456848 58.701977,8.84167511 59.817374,9.09355494 C59.8505239,9.09930125 59.8895238,9.10792071 59.9216987,9.11175158 C60.6558717,9.27935223 61.304245,9.7246911 61.6776689,10.4180789 C62.4323169,11.8077278 61.8161186,13.6494195 60.3068227,14.5343509 C58.8033767,15.4154515 56.9664817,15.0103367 56.2157338,13.6216456 C55.8403598,12.9282578 55.8072099,12.1161129 56.0548592,11.3738815 C56.4672831,10.2227045 56.4214582,8.96426301 55.8403598,7.8887457 C55.2563364,6.81131295 54.2442891,6.12079827 53.0850173,5.89094595" id="Fill-53" fill="#006AB3"></path>
                </g>
            </g>
        </g>
    </g>
</svg>