<?xml version="1.0" encoding="UTF-8"?>
<svg width="25px" height="25px" viewBox="0 0 25 25" version="1.1" xmlns="http://www.w3.org/2000/svg" xmlns:xlink="http://www.w3.org/1999/xlink">
    <!-- Generator: Sketch 63.1 (92452) - https://sketch.com -->
    <title>XMLID_30_</title>
    <desc>Created with Sketch.</desc>
    <g id="生源泰-電腦用" stroke="none" stroke-width="1" fill="none" fill-rule="evenodd">
        <g id="1首頁" transform="translate(-832.000000, -3343.000000)" fill-rule="nonzero">
            <g id="實驗室" transform="translate(0.000000, 2562.000000)">
                <g id="左邊圖" transform="translate(129.000000, 356.000000)">
                    <g id="左右轉" transform="translate(650.000000, 426.000000)">
                        <g id="XMLID_30_" transform="translate(54.000000, 0.000000)">
                            <g id="Group-12">
                                <path d="M12.7075,11.4471596 C12.1325,10.9871596 11.615,10.4696596 11.0975,10.0096596 C10.5225,9.49215961 9.9475,9.03215961 9.43,8.51465961 C9.2,8.34215961 9.1425,8.05465961 9.2575,7.82465961 C9.43,7.47965961 9.8325,7.36465961 10.1775,7.59465961 C10.695,8.05465961 11.2125,8.51465961 11.73,8.91715961 C12.4775,9.54965961 13.225,10.2396596 13.9725,10.8721596 C14.3175,11.1596596 14.3175,11.5621596 13.9725,11.8496596 C12.7075,12.9421596 11.5,14.0346596 10.235,15.1271596 C10.0625,15.2996596 9.8325,15.3571596 9.6025,15.2421596 C9.2,15.0696596 9.085,14.5521596 9.43,14.2646596 C9.89,13.8621596 10.2925,13.5171596 10.7525,13.1146596 C11.385,12.5971596 12.0175,12.0221596 12.5925,11.5046596 C12.5925,11.5046596 12.65,11.5046596 12.7075,11.4471596 Z" id="XMLID_51_" fill="#FFFFFF"></path>
                                <rect id="XMLID_27_-Copy-2" stroke="#FFFFFF" opacity="0.849725632" x="0" y="0" width="23" height="23" rx="5"></rect>
                            </g>
                        </g>
                    </g>
                </g>
            </g>
        </g>
    </g>
</svg>